# xmcd
#
# Track frame offsets: 
#        150
#        17087
#        35465
#        51623
#        65332
#        79288
#        94186
#        109599
#        126613
#        142222
#        158499
#
# Disc length: 2334 seconds
#
# Revision: 0
# Processed by: cddbd v1.5.2PL0 Copyright (c) Steve Scherf et al.
# Submitted via: ExactAudioCopy v1.1
#
DISCID=9c091c0b
DTITLE=Diverse - The Longest Ride
DYEAR=1900
DGENRE=Soundtrack
TTITLE0=Seafret - Wildfire
TTITLE1=Middle Brothers - Blues Eyes
TTITLE2=Nikki Lane - Sleep with a stranger
TTITLE3=Ben u. Ellen Harper - Learn it all again tomorrow
TTITLE4=The Wild Feathers - Backwoods Company
TTITLE5=Pistol Annies - I feel a sin comin' on
TTITLE6=Josh Abbott Band - Oh, tonight
TTITLE7=Black Pistol Fire - Show Pony
TTITLE8=Adanowsky - Dancing to the radio
TTITLE9=Kodaline - Love like this
TTITLE10=Ryan Adams - Desire
EXTD=
EXTT0=
EXTT1=
EXTT2=
EXTT3=
EXTT4=
EXTT5=
EXTT6=
EXTT7=
EXTT8=
EXTT9=
EXTT10=
PLAYORDER=
